<svg width="70" height="70" viewBox="0 0 70 70" fill="none" xmlns="http://www.w3.org/2000/svg">
<path d="M0 18C0 8.05887 8.05888 0 18 0H52C61.9411 0 70 8.05888 70 18V52C70 61.9411 61.9411 70 52 70H18C8.05887 70 0 61.9411 0 52V18Z" fill="#F53626"/>
<path d="M39.0249 37.5375C37.202 37.5375 35.6525 36.8995 34.3765 35.6234C33.1004 34.3474 32.4624 32.7979 32.4624 30.975C32.4624 29.1521 33.1004 27.6026 34.3765 26.3265C35.6525 25.0505 37.202 24.4125 39.0249 24.4125C40.8478 24.4125 42.3973 25.0505 43.6733 26.3265C44.9494 27.6026 45.5874 29.1521 45.5874 30.975C45.5874 32.7979 44.9494 34.3474 43.6733 35.6234C42.3973 36.8995 40.8478 37.5375 39.0249 37.5375ZM23.7124 44.1C22.5093 44.1 21.4793 43.6716 20.6226 42.8148C19.7658 41.958 19.3374 40.9281 19.3374 39.725V22.225C19.3374 21.0219 19.7658 19.9919 20.6226 19.1351C21.4793 18.2784 22.5093 17.85 23.7124 17.85H54.3374C55.5405 17.85 56.5705 18.2784 57.4272 19.1351C58.284 19.9919 58.7124 21.0219 58.7124 22.225V39.725C58.7124 40.9281 58.284 41.958 57.4272 42.8148C56.5705 43.6716 55.5405 44.1 54.3374 44.1H23.7124ZM28.0874 39.725H49.9624C49.9624 38.5219 50.3908 37.4919 51.2476 36.6351C52.1043 35.7784 53.1343 35.35 54.3374 35.35V26.6C53.1343 26.6 52.1043 26.1716 51.2476 25.3148C50.3908 24.458 49.9624 23.4281 49.9624 22.225H28.0874C28.0874 23.4281 27.659 24.458 26.8022 25.3148C25.9455 26.1716 24.9155 26.6 23.7124 26.6V35.35C24.9155 35.35 25.9455 35.7784 26.8022 36.6351C27.659 37.4919 28.0874 38.5219 28.0874 39.725ZM52.1499 52.85H14.9624C13.7593 52.85 12.7293 52.4216 11.8726 51.5648C11.0158 50.708 10.5874 49.6781 10.5874 48.475V24.4125H14.9624V48.475H52.1499V52.85Z" fill="white" fill-opacity="0.95"/>
</svg>
