<svg width="70" height="70" viewBox="0 0 70 70" fill="none" xmlns="http://www.w3.org/2000/svg">
<path d="M0 18C0 8.05887 8.05888 0 18 0H52C61.9411 0 70 8.05888 70 18V52C70 61.9411 61.9411 70 52 70H18C8.05887 70 0 61.9411 0 52V18Z" fill="#67ADFA"/>
<path d="M39.025 37.5375C37.2021 37.5375 35.6526 36.8995 34.3766 35.6235C33.1005 34.3474 32.4625 32.798 32.4625 30.975C32.4625 29.1521 33.1005 27.6026 34.3766 26.3266C35.6526 25.0506 37.2021 24.4125 39.025 24.4125C40.8479 24.4125 42.3974 25.0506 43.6734 26.3266C44.9495 27.6026 45.5875 29.1521 45.5875 30.975C45.5875 32.798 44.9495 34.3474 43.6734 35.6235C42.3974 36.8995 40.8479 37.5375 39.025 37.5375ZM23.7125 44.1C22.5094 44.1 21.4794 43.6717 20.6227 42.8149C19.7659 41.9581 19.3375 40.9282 19.3375 39.725V22.225C19.3375 21.0219 19.7659 19.992 20.6227 19.1352C21.4794 18.2784 22.5094 17.85 23.7125 17.85H54.3375C55.5406 17.85 56.5706 18.2784 57.4274 19.1352C58.2841 19.992 58.7125 21.0219 58.7125 22.225V39.725C58.7125 40.9282 58.2841 41.9581 57.4274 42.8149C56.5706 43.6717 55.5406 44.1 54.3375 44.1H23.7125ZM28.0875 39.725H49.9625C49.9625 38.5219 50.3909 37.492 51.2477 36.6352C52.1044 35.7784 53.1344 35.35 54.3375 35.35V26.6C53.1344 26.6 52.1044 26.1717 51.2477 25.3149C50.3909 24.4581 49.9625 23.4282 49.9625 22.225H28.0875C28.0875 23.4282 27.6591 24.4581 26.8024 25.3149C25.9456 26.1717 24.9156 26.6 23.7125 26.6V35.35C24.9156 35.35 25.9456 35.7784 26.8024 36.6352C27.6591 37.492 28.0875 38.5219 28.0875 39.725ZM52.15 52.85H14.9625C13.7594 52.85 12.7294 52.4216 11.8727 51.5649C11.0159 50.7081 10.5875 49.6782 10.5875 48.475V24.4125H14.9625V48.475H52.15V52.85Z" fill="white"/>
</svg>
