<svg width="70" height="70" viewBox="0 0 70 70" fill="none" xmlns="http://www.w3.org/2000/svg">
<path d="M0 18C0 8.05887 8.05888 0 18 0H52C61.9411 0 70 8.05888 70 18V52C70 61.9411 61.9411 70 52 70H18C8.05887 70 0 61.9411 0 52V18Z" fill="#67ADFA"/>
<path d="M22.225 52.85C20.4021 52.85 18.8526 52.212 17.5765 50.936C16.3005 49.6599 15.6625 48.1105 15.6625 46.2875H11.2875V22.225C11.2875 21.0219 11.7159 19.992 12.5726 19.1352C13.4294 18.2784 14.4594 17.85 15.6625 17.85H46.2875V26.6H52.85L59.4125 35.35V46.2875H55.0375C55.0375 48.1105 54.3995 49.6599 53.1234 50.936C51.8474 52.212 50.2979 52.85 48.475 52.85C46.6521 52.85 45.1026 52.212 43.8265 50.936C42.5505 49.6599 41.9125 48.1105 41.9125 46.2875H28.7875C28.7875 48.1105 28.1495 49.6599 26.8734 50.936C25.5974 52.212 24.0479 52.85 22.225 52.85ZM22.225 48.475C22.8448 48.475 23.3643 48.2654 23.7836 47.8461C24.2028 47.4269 24.4125 46.9073 24.4125 46.2875C24.4125 45.6677 24.2028 45.1482 23.7836 44.7289C23.3643 44.3097 22.8448 44.1 22.225 44.1C21.6052 44.1 21.0857 44.3097 20.6664 44.7289C20.2471 45.1482 20.0375 45.6677 20.0375 46.2875C20.0375 46.9073 20.2471 47.4269 20.6664 47.8461C21.0857 48.2654 21.6052 48.475 22.225 48.475ZM15.6625 41.9125H17.4125C18.0323 41.2563 18.7432 40.7276 19.5453 40.3266C20.3474 39.9256 21.2406 39.725 22.225 39.725C23.2094 39.725 24.1026 39.9256 24.9047 40.3266C25.7067 40.7276 26.4177 41.2563 27.0375 41.9125H41.9125V22.225H15.6625V41.9125ZM48.475 48.475C49.0948 48.475 49.6143 48.2654 50.0336 47.8461C50.4528 47.4269 50.6625 46.9073 50.6625 46.2875C50.6625 45.6677 50.4528 45.1482 50.0336 44.7289C49.6143 44.3097 49.0948 44.1 48.475 44.1C47.8552 44.1 47.3357 44.3097 46.9164 44.7289C46.4971 45.1482 46.2875 45.6677 46.2875 46.2875C46.2875 46.9073 46.4971 47.4269 46.9164 47.8461C47.3357 48.2654 47.8552 48.475 48.475 48.475ZM46.2875 37.5375H55.5844L50.6625 30.975H46.2875V37.5375Z" fill="white"/>
</svg>
