<svg width="70" height="70" viewBox="0 0 70 70" fill="none" xmlns="http://www.w3.org/2000/svg">
<path d="M0 18C0 8.05887 8.05888 0 18 0H52C61.9411 0 70 8.05888 70 18V52C70 61.9411 61.9411 70 52 70H18C8.05887 70 0 61.9411 0 52V18Z" fill="#F53626"/>
<path d="M22.2251 52.85C20.4022 52.85 18.8527 52.212 17.5767 50.9359C16.3006 49.6599 15.6626 48.1104 15.6626 46.2875H11.2876V22.225C11.2876 21.0219 11.716 19.9919 12.5728 19.1351C13.4295 18.2784 14.4595 17.85 15.6626 17.85H46.2876V26.6H52.8501L59.4126 35.35V46.2875H55.0376C55.0376 48.1104 54.3996 49.6599 53.1235 50.9359C51.8475 52.212 50.298 52.85 48.4751 52.85C46.6522 52.85 45.1027 52.212 43.8267 50.9359C42.5506 49.6599 41.9126 48.1104 41.9126 46.2875H28.7876C28.7876 48.1104 28.1496 49.6599 26.8735 50.9359C25.5975 52.212 24.048 52.85 22.2251 52.85ZM22.2251 48.475C22.8449 48.475 23.3644 48.2653 23.7837 47.8461C24.203 47.4268 24.4126 46.9073 24.4126 46.2875C24.4126 45.6677 24.203 45.1482 23.7837 44.7289C23.3644 44.3096 22.8449 44.1 22.2251 44.1C21.6053 44.1 21.0858 44.3096 20.6665 44.7289C20.2472 45.1482 20.0376 45.6677 20.0376 46.2875C20.0376 46.9073 20.2472 47.4268 20.6665 47.8461C21.0858 48.2653 21.6053 48.475 22.2251 48.475ZM15.6626 41.9125H17.4126C18.0324 41.2562 18.7433 40.7276 19.5454 40.3265C20.3475 39.9255 21.2407 39.725 22.2251 39.725C23.2095 39.725 24.1027 39.9255 24.9048 40.3265C25.7069 40.7276 26.4178 41.2562 27.0376 41.9125H41.9126V22.225H15.6626V41.9125ZM48.4751 48.475C49.0949 48.475 49.6144 48.2653 50.0337 47.8461C50.453 47.4268 50.6626 46.9073 50.6626 46.2875C50.6626 45.6677 50.453 45.1482 50.0337 44.7289C49.6144 44.3096 49.0949 44.1 48.4751 44.1C47.8553 44.1 47.3358 44.3096 46.9165 44.7289C46.4972 45.1482 46.2876 45.6677 46.2876 46.2875C46.2876 46.9073 46.4972 47.4268 46.9165 47.8461C47.3358 48.2653 47.8553 48.475 48.4751 48.475ZM46.2876 37.5375H55.5845L50.6626 30.975H46.2876V37.5375Z" fill="white" fill-opacity="0.95"/>
</svg>
